<svg width="26" height="25" viewBox="0 0 26 25" fill="none" xmlns="http://www.w3.org/2000/svg">
<path d="M19.7294 2.30142C17.6107 0.795783 15.1103 0 12.4982 0C9.15969 0 6.0211 1.30005 3.66057 3.6607C1.55952 5.76175 0.273424 8.54778 0.0390701 11.5058C-0.192492 14.4302 0.610816 17.3507 2.30129 19.7295L2.75896 20.3734L20.3732 2.75909L19.7294 2.30142Z" fill="#5DC3EC"/>
<path d="M22.7164 5.29598L22.2593 4.64911L4.64893 22.2596L5.2958 22.7169C7.40838 24.2101 9.89974 25 12.5002 25C12.5006 25 12.5007 25 12.5012 25C15.8389 25 18.9775 23.6995 21.338 21.3388C25.6552 17.0218 26.2348 10.2744 22.7164 5.29598Z" fill="#5DC3EC"/>
</svg>
