<svg width="31" height="31" viewBox="0 0 31 31" fill="none" xmlns="http://www.w3.org/2000/svg">
<g clip-path="url(#clip0_10_53)">
<path d="M26.392 14.2172C26.404 14.0456 26.4112 13.874 26.4112 13.7C26.4112 9.06798 22.642 5.29999 18.0112 5.29999C14.668 5.29999 11.6572 7.29317 10.3264 10.322C9.89682 10.1744 9.45643 10.1 9.01123 10.1C6.86682 10.1 5.09201 11.7152 4.84604 13.8404C2.05721 14.3888 0.0112305 16.8236 0.0112305 19.7C0.0112305 23.0084 2.70285 25.7 6.01123 25.7H24.0112C27.3184 25.7 30.0112 23.0084 30.0112 19.7C30.0112 17.3096 28.5748 15.1616 26.392 14.2172Z" fill="#5DC3EC"/>
</g>
<defs>
<clipPath id="clip0_10_53">
<rect width="30" height="30" fill="white" transform="translate(0.0112305 0.5)"/>
</clipPath>
</defs>
</svg>
