<svg width="31" height="31" viewBox="0 0 31 31" fill="none" xmlns="http://www.w3.org/2000/svg">
<g clip-path="url(#clip0_10_48)">
<path d="M29.9611 11.8212C29.8486 11.4875 29.5599 11.2462 29.2111 11.1937L19.9836 9.8175L15.8211 1.03625C15.6661 0.70875 15.3374 0.5 14.9749 0.5C14.6449 0.505 14.2774 0.7125 14.1249 1.0425L10.0224 9.85L0.804865 11.29C0.456115 11.345 0.168615 11.5875 0.0586151 11.9225C-0.0526349 12.2562 0.0336151 12.6237 0.279865 12.8737L7.00361 19.7125L5.45486 29.4162C5.39736 29.7687 5.54861 30.125 5.84236 30.33C6.00236 30.4425 6.18986 30.5 6.37986 30.5C6.53611 30.5 6.69361 30.4612 6.83611 30.3812L15.0574 25.8037L23.3111 30.3262C23.6249 30.4987 24.0111 30.475 24.3049 30.2675C24.5961 30.06 24.7461 29.7037 24.6874 29.35L23.0699 19.6562L29.7474 12.7737C29.9911 12.5212 30.0749 12.1537 29.9611 11.8212ZM15.0111 16.4375C16.3899 16.4375 17.5111 17.6287 17.5111 19.0937C17.5111 20.5587 16.3899 21.75 15.0111 21.75H13.4486C12.9311 21.75 12.5111 21.33 12.5111 20.8125C12.5111 20.295 12.9311 19.875 13.4486 19.875H15.0111C15.3499 19.875 15.6361 19.5175 15.6361 19.0937C15.6361 18.67 15.3499 18.3125 15.0111 18.3125H13.4486C12.9311 18.3125 12.5111 17.8925 12.5111 17.375V13.9375C12.5111 13.42 12.9311 13 13.4486 13H16.5736C17.0911 13 17.5111 13.42 17.5111 13.9375C17.5111 14.455 17.0911 14.875 16.5736 14.875H14.3861V16.4375H15.0111Z" fill="#5DC3EC"/>
</g>
<defs>
<clipPath id="clip0_10_48">
<rect width="30" height="30" fill="white" transform="translate(0.0112305 0.5)"/>
</clipPath>
</defs>
</svg>
