<svg width="114" height="39" viewBox="0 0 114 39" fill="none" xmlns="http://www.w3.org/2000/svg">
<g clip-path="url(#clip0_10_26)">
<path fill-rule="evenodd" clip-rule="evenodd" d="M78.1784 0.960464C68.8328 -1.82547 57.5723 4.14439 51.2239 12.586C47.5606 17.4666 41.795 26.3271 37.0493 31.0402C30.805 37.2404 20.3146 38.4972 19.5445 38.8743C19.5029 38.8952 19.4612 38.8952 19.4404 38.9581V38.979C19.5029 38.9581 19.5653 38.9581 19.6278 38.9371C19.6902 38.9162 19.7526 38.9162 19.8359 38.8952C19.9192 38.8743 20.0024 38.8533 20.1065 38.8324C25.9553 38.0992 31.596 37.0519 37.0077 33.5957C38.4439 32.674 39.7344 31.5848 40.9624 30.4536C42.9606 28.5684 44.6466 26.9555 46.6447 24.6304C46.6447 24.6304 47.9977 22.9547 48.4556 22.4729C48.4556 22.4729 55.3659 29.0502 55.5949 29.2387C55.5949 29.2387 60.1741 29.2387 60.1949 29.2178L50.2456 19.687C55.7406 11.1825 64.1496 -0.380135 78.1784 0.960464Z" fill="#3FADD8"/>
<path fill-rule="evenodd" clip-rule="evenodd" d="M48.5182 12.0204C47.2486 13.3819 46.1454 14.7016 45.5001 15.4975C42.94 12.963 39.0477 9.31822 39.0477 9.31822H34.6143L44.8757 18.9747C44.8757 18.9747 47.5608 15.309 48.7264 13.6333C50.1626 11.5595 53.6802 7.93573 53.6802 7.93573C53.6802 7.93573 50.8494 9.52769 48.5182 12.0204Z" fill="white"/>
<path d="M0 9.25537H3.43436L14.0497 25.1959H14.1121V9.25537H16.7347V28.6522H13.4044L2.66423 12.7116H2.60179V28.6522H0V9.25537Z" fill="white"/>
<path d="M20.8975 9.25537H33.3444V11.7271H23.5201V17.5084H32.6784V19.9802H23.5201V26.2014H33.844V28.6731H20.9183V9.25537H20.8975Z" fill="white"/>
<path d="M76.659 17.8227V27.3954C74.7857 28.5475 71.7052 29.1759 69.3532 29.1759C62.8175 29.1759 59.0293 24.4838 59.0293 18.9747C59.0293 13.2144 63.1922 8.77362 69.0826 8.77362C72.6211 8.77362 74.7649 9.73718 76.2636 11.2872L74.4111 13.2981C72.8292 11.769 70.9975 11.2454 69.0826 11.2454C64.67 11.2454 61.8184 14.7225 61.8184 18.9747C61.8184 23.3526 65.0655 26.7041 69.3116 26.7041C71.1432 26.7041 72.8708 26.348 74.0572 25.6987V20.2734H69.7903V17.8227H76.659Z" fill="white"/>
<path d="M80.6348 9.25537H93.0817V11.7271H83.2574V17.5084H92.4157V19.9802H83.2574V26.2014H93.5813V28.6731H80.6556V9.25537H80.6348Z" fill="white"/>
<path d="M97.2861 9.25537H100.72L111.336 25.1959H111.398V9.25537H114.021V28.6522H110.691L99.9712 12.7116H99.9087V28.6522H97.2861V9.25537V9.25537Z" fill="white"/>
</g>
<defs>
<clipPath id="clip0_10_26">
<rect width="114" height="39" fill="white"/>
</clipPath>
</defs>
</svg>
